# xmcd
#
# Track frame offsets: 
#        150
#        10789
#        21137
#        33515
#        44730
#        56211
#        69379
#        82833
#        92672
#        102711
#        113018
#        124158
#        134192
#        146196
#        157699
#        167808
#        177229
#        189354
#        201702
#        211890
#        222431
#        234158
#        246333
#        257621
#        269430
#        280373
#        292091
#        303756
#        313321
#
# Disc length: 4331 seconds
#
# Revision: 1
# Processed by: cddbd v1.5.2PL0 Copyright (c) Steve Scherf et al.
# Submitted via: ExactAudioCopyFreeDBPlugin 1.0
#
DISCID=be10e91d
DTITLE=Various Artist - The Complete Stax-Volt Singles, 1959-1975
DYEAR=2018
DGENRE=Soul
TTITLE0=Carla and Rufus - Deep Down Inside
TTITLE1=Rufus and Friend - Yeah, Yea-ah
TTITLE2=Prince Conley - All the Way
TTITLE3=The Canes - I’ll Never Give Her Up
TTITLE4=The Astors - Just Enough to Hurt Me
TTITLE5=Eddie Kirk - I Found a Brand New Love
TTITLE6=Rufus Thomas - Fine and Mellow
TTITLE7=Booker T. and The M.G.'s - Fannie Mae
TTITLE8=Floyd Newman - Sassy
TTITLE9=Rufus Thomas - I Want to Get Married
TTITLE10=Bobby Marchan - That’s the Way it Goes
TTITLE11=The Cobras - Shake Up
TTITLE12=Barbara and The Browns - You Belong to Her
TTITLE13=Dorothy Williams - Watchdog
TTITLE14=Baracudas - Free for All
TTITLE15=Barbara and The Browns - I Don’t Want Trouble
TTITLE16=Gorgeous George - Sweet Thing
TTITLE17=The Astors - I Found Out
TTITLE18=Rufus and Carla Thomas - We’re Tight
TTITLE19=Rufus Thomas - Chicken Scratch
TTITLE20=Ruby Johnson - Weak Spot
TTITLE21=Rufus Thomas - Talkin’ Bout True Love
TTITLE22=Mable John - If You Give Up What You Got (You’ll See What You
TTITLE22=Lost)
TTITLE23=Sam and Dave - A Small Portion of Your Love
TTITLE24=Ruby Johnson - Keep on Keeping On
TTITLE25=Rufus Thomas - Greasy Spoon
TTITLE26=Mable John - Left Over Love
TTITLE27=Ollie and The Nightingales - Girl, You Have My Heart Singing
TTITLE28=Mable John - Don’t Get Caught
EXTD=
EXTT0=
EXTT1=
EXTT2=
EXTT3=
EXTT4=
EXTT5=
EXTT6=
EXTT7=
EXTT8=
EXTT9=
EXTT10=
EXTT11=
EXTT12=
EXTT13=
EXTT14=
EXTT15=
EXTT16=
EXTT17=
EXTT18=
EXTT19=
EXTT20=
EXTT21=
EXTT22=
EXTT23=
EXTT24=
EXTT25=
EXTT26=
EXTT27=
EXTT28=
PLAYORDER=
